<svg width="32" height="32" viewBox="0 0 32 32" fill="none" xmlns="http://www.w3.org/2000/svg">
<path d="M12.9567 22.4553L12.957 22.4553C12.9573 22.4562 12.9575 22.457 12.9578 22.4579C12.9579 22.4585 12.9581 22.459 12.9583 22.4596L12.7388 22.4888L12.9567 22.4553M12.9567 22.4553C12.9563 22.4533 12.9559 22.4513 12.9556 22.4493C12.9549 22.4462 12.9543 22.443 12.9538 22.4398L12.9552 22.449L12.9567 22.4553M12.9567 22.4553L12.9567 22.4553M12.9567 22.4553C12.9569 22.4562 12.9571 22.4571 12.9573 22.458L12.9567 22.4553M12.962 22.3803L12.9651 22.395C12.9633 22.3923 12.9615 22.3897 12.9596 22.3874M12.962 22.3803C12.969 22.3616 12.978 22.3514 12.9814 22.3481C12.9827 22.3468 12.9833 22.3463 12.9833 22.3463C12.9832 22.3461 12.9755 22.3518 12.9569 22.3562M12.962 22.3803C12.9618 22.3809 12.9616 22.3815 12.9613 22.3821C12.9607 22.3838 12.9602 22.3856 12.9596 22.3874M12.962 22.3803L12.9569 22.3562M12.9569 22.3562L12.9437 22.2936M12.9569 22.3562C12.9551 22.3567 12.9531 22.3571 12.951 22.3575L12.9485 22.358M12.9437 22.2936C12.9654 22.2871 12.9867 22.2804 13.0076 22.2737C12.9856 22.2719 12.9628 22.2721 12.9397 22.2746M12.9437 22.2936C12.9431 22.2938 12.9425 22.294 12.9418 22.2942M12.9437 22.2936L12.9397 22.2746M12.9397 22.2746C12.8901 22.285 12.8466 22.3046 12.8127 22.3307C12.857 22.319 12.9001 22.3068 12.9418 22.2942M12.9397 22.2746L12.9418 22.2942M12.9418 22.2942L12.9485 22.358M12.9485 22.358C12.9342 22.3611 12.926 22.3588 12.9259 22.359C12.9259 22.359 12.9263 22.3591 12.9271 22.3595C12.9279 22.3598 12.9384 22.3648 12.9505 22.3771M12.9485 22.358L12.9485 22.3582L12.9505 22.3771M12.9505 22.3771L12.9544 22.4138C12.9549 22.4083 12.9558 22.403 12.9569 22.3978C12.9572 22.3962 12.9576 22.3945 12.958 22.3929C12.9585 22.391 12.9591 22.3892 12.9596 22.3874M12.9505 22.3771C12.9514 22.3779 12.9522 22.3788 12.9531 22.3797C12.9541 22.3808 12.9551 22.3819 12.9561 22.3831C12.9573 22.3844 12.9584 22.3859 12.9596 22.3874M10.4839 21.9101C10.4763 21.9128 10.4687 21.9164 10.4614 21.9209C10.4605 21.9214 10.4596 21.922 10.4587 21.9226C10.4542 21.9255 10.4498 21.9287 10.4456 21.9323C10.4437 21.9339 10.4419 21.9355 10.4401 21.9372C10.4365 21.9414 10.4333 21.9456 10.4304 21.9497C10.4282 21.9528 10.4263 21.9559 10.4244 21.9589C10.4219 21.9632 10.4196 21.9673 10.4176 21.9714C10.4158 21.9751 10.4142 21.9787 10.4128 21.9822M10.4839 21.9101L10.4835 21.9116M10.4839 21.9101C10.4837 21.9106 10.4836 21.9111 10.4835 21.9116M10.4839 21.9101L10.4835 21.9116M10.4128 21.9822C10.4117 21.9851 10.4107 21.988 10.4098 21.9907C10.4104 21.9905 10.4111 21.9903 10.4117 21.99C10.4118 21.99 10.4119 21.99 10.4119 21.99C10.4214 21.9867 10.4309 21.9821 10.4399 21.9761C10.444 21.9734 10.4479 21.9705 10.4518 21.9672C10.4532 21.966 10.4546 21.9648 10.456 21.9635C10.4598 21.9589 10.4633 21.9542 10.4664 21.9494C10.4687 21.9457 10.4709 21.9421 10.4728 21.9384C10.4758 21.9327 10.4783 21.9271 10.4803 21.9215C10.4815 21.9182 10.4826 21.9149 10.4835 21.9116M10.4128 21.9822L10.43 21.9651L10.4128 21.9822ZM10.4835 21.9116L10.4652 21.9299L10.4835 21.9116ZM12.981 22.504C12.9812 22.5034 12.9814 22.5028 12.9816 22.5023C12.983 22.4984 12.9842 22.4943 12.9851 22.4901L12.9902 22.5144M12.981 22.504C12.9807 22.5036 12.9803 22.5031 12.98 22.5027C12.9795 22.5021 12.979 22.5014 12.9785 22.5008C12.9716 22.4913 12.9647 22.479 12.9597 22.464L12.9659 22.5232C12.9675 22.523 12.9691 22.5229 12.9707 22.5228M12.981 22.504C12.9825 22.5059 12.984 22.5078 12.9855 22.5095C12.9872 22.5113 12.9887 22.5129 12.9902 22.5144M12.981 22.504C12.9808 22.5044 12.9807 22.5048 12.9805 22.5052C12.9803 22.5057 12.98 22.5063 12.9798 22.5068C12.9768 22.514 12.9734 22.5192 12.9707 22.5228M12.9707 22.5228C12.9694 22.5245 12.9682 22.5259 12.9673 22.5268C12.9662 22.528 12.9656 22.5285 12.9656 22.5285C12.9656 22.5286 12.9695 22.5256 12.9788 22.5225M12.9707 22.5228C12.9735 22.5226 12.9762 22.5225 12.9788 22.5225M12.9788 22.5225C12.9803 22.5225 12.9817 22.5225 12.9831 22.5226C12.9834 22.5226 12.9837 22.5226 12.984 22.5226C12.9878 22.5228 12.9913 22.5232 12.9945 22.5237C13.0028 22.5249 13.0065 22.5267 13.006 22.5264C13.0059 22.5264 12.9993 22.5234 12.9902 22.5144M12.9788 22.5225C12.9801 22.5221 12.9814 22.5217 12.9829 22.5213C12.9831 22.5212 12.9834 22.5211 12.9837 22.521C12.9859 22.5204 12.9885 22.5198 12.9912 22.5192L12.9902 22.5144M19.04 10.6388C18.931 10.7074 18.8425 10.7655 18.7808 10.8066C17.9056 10.5727 16.9663 10.4531 16.0402 10.4531C15.1141 10.4531 14.1747 10.5727 13.2995 10.8066C13.2379 10.7655 13.1494 10.7074 13.0404 10.6388C12.8224 10.5015 12.5207 10.3208 12.1883 10.1488C11.8571 9.97743 11.4882 9.81092 11.1367 9.70576C10.7945 9.60341 10.4266 9.54587 10.1203 9.64063L10.006 9.67598L9.96187 9.78714C9.39459 11.2147 9.63656 12.3625 9.7942 12.8381C9.47996 13.1962 9.23252 13.539 9.06204 13.937C8.87283 14.3788 8.78571 14.8713 8.78571 15.5045C8.78571 17.6855 9.42861 18.9318 10.4505 19.6506C11.32 20.2622 12.4303 20.4627 13.5147 20.5942C13.3163 20.8864 13.1587 21.2618 13.0764 21.7172C12.7682 21.8416 12.3102 21.9721 11.832 21.9293C11.3038 21.882 10.7284 21.6226 10.2845 20.8388L10.2836 20.8373C9.94617 20.2514 9.47213 19.9338 9.08517 19.7638C8.89205 19.679 8.71956 19.6305 8.5941 19.6029C8.53125 19.5891 8.47981 19.5805 8.44301 19.5753C8.42459 19.5726 8.4098 19.5709 8.39904 19.5697L8.38593 19.5683L8.38173 19.568L8.38023 19.5678L8.37963 19.5678L8.37937 19.5678C8.37925 19.5678 8.37913 19.5677 8.35938 19.817L8.37913 19.5677L8.37081 19.5671L8.36246 19.567C8.21594 19.5652 8.09108 19.575 7.98798 19.599C7.88822 19.6223 7.78262 19.6649 7.70539 19.7497C7.61808 19.8455 7.59617 19.9624 7.61234 20.0658C7.62675 20.158 7.67002 20.2367 7.70897 20.294C7.7877 20.4098 7.90214 20.5145 7.98432 20.5832C8.0276 20.6194 8.06666 20.6495 8.09504 20.6706C8.10929 20.6812 8.121 20.6897 8.12938 20.6957L8.13939 20.7027L8.14237 20.7048L8.14332 20.7055L8.14366 20.7057L8.1438 20.7058C8.14386 20.7059 8.14391 20.7059 8.28571 20.5L8.14391 20.7059L8.1614 20.7179L8.18068 20.7269C8.46815 20.86 8.74337 21.2052 8.95853 21.5643C9.06193 21.7369 9.14424 21.9003 9.20071 22.0206C9.22887 22.0806 9.25041 22.1295 9.26475 22.163C9.27191 22.1798 9.27726 22.1926 9.28073 22.2011L9.28296 22.2065C9.65837 23.3416 10.7318 23.6911 11.6162 23.7748C12.0669 23.8175 12.4932 23.7947 12.8051 23.7619C12.8863 23.7534 12.9601 23.7441 13.0249 23.7351C13.0259 24.1474 13.0286 24.6236 13.0313 25.0468C13.0323 25.2043 13.0332 25.3544 13.0342 25.491C13.0363 25.8143 13.0379 26.0627 13.0379 26.1585C13.0379 26.2499 13.0055 26.3348 12.9481 26.3871C12.8991 26.4317 12.7956 26.4855 12.5788 26.4509C8.27175 24.9999 5.25446 20.8955 5.25446 16.0937C5.25446 10.0855 9.84241 5.52902 15.8527 5.52902C21.8714 5.52902 26.7321 10.0938 26.7321 16.0937V16.0941C26.7387 20.8994 23.8115 25.0078 19.5082 26.451C19.2955 26.4853 19.1914 26.4322 19.1409 26.3865C19.0819 26.3332 19.0491 26.2478 19.0491 26.1585C19.0491 26.04 19.0506 25.7607 19.0525 25.3855C19.0535 25.1907 19.0547 24.97 19.0558 24.7325C19.0591 24.0385 19.0625 23.2026 19.0625 22.4554C19.0625 21.6408 18.8607 21.0237 18.5624 20.5933C19.649 20.4629 20.7792 20.2663 21.6702 19.6604C22.7212 18.9457 23.3951 17.6992 23.3951 15.5045C23.3951 14.8625 23.2798 14.3669 23.0632 13.9253C22.8695 13.5306 22.5998 13.19 22.2855 12.8366C22.4386 12.3669 22.6853 11.2198 22.1186 9.78749L22.0745 9.67605L21.96 9.64063C21.6537 9.54587 21.2858 9.60341 20.9437 9.70576C20.5922 9.81092 20.2232 9.97743 19.8921 10.1488C19.5596 10.3208 19.258 10.5015 19.04 10.6388ZM8.90901 20.2354C8.90941 20.2347 8.90982 20.234 8.91022 20.2333C8.93361 20.2439 8.95732 20.2552 8.9813 20.2672L8.98117 20.2674L8.90901 20.2354ZM8.92858 20.2634L8.96888 20.2903L8.92535 20.3711C8.91259 20.3641 8.90103 20.3563 8.89075 20.348C8.88557 20.3226 8.88515 20.2886 8.90109 20.2512C8.90176 20.2496 8.90245 20.248 8.90318 20.2465L8.92858 20.2634ZM8.98255 20.2994L8.98984 20.3042L9.04953 20.344C9.02929 20.3744 9.00562 20.3912 8.98668 20.4003C8.97435 20.3965 8.96199 20.3912 8.94991 20.3843L8.9667 20.3406L8.98255 20.2994ZM12.9587 22.455L12.959 22.4576L12.9592 22.4595L12.9696 22.4581L12.971 22.4579L12.9781 22.4569L12.9774 22.4534L12.9771 22.4522L12.9701 22.4533L12.9686 22.4535L12.9587 22.455ZM11.2135 22.3792C11.2163 22.3729 11.2194 22.3671 11.2227 22.362L11.2171 22.3805L11.2122 22.3967L11.2081 22.4104L11.2037 22.4251C11.2039 22.42 11.2043 22.4148 11.2051 22.4094C11.2058 22.4048 11.2067 22.4001 11.2079 22.3954C11.2086 22.3926 11.2094 22.3899 11.2102 22.3871C11.2113 22.3844 11.2124 22.3817 11.2135 22.3792ZM11.2123 22.4411C11.2121 22.4417 11.2118 22.4422 11.2115 22.4427L11.2184 22.4135L11.2216 22.3996L11.2254 22.3837L11.2296 22.3659C11.2299 22.3719 11.2299 22.3784 11.2293 22.3852C11.2289 22.3894 11.2283 22.3938 11.2275 22.3983C11.2273 22.3993 11.2271 22.4002 11.2269 22.4012C11.226 22.4057 11.2248 22.4103 11.2233 22.415C11.2203 22.4249 11.2165 22.4336 11.2123 22.4411ZM9.95705 21.2632C9.95725 21.2635 9.95745 21.2638 9.95764 21.2641C9.95787 21.2644 9.95809 21.2648 9.95831 21.2651C9.95665 21.273 9.95375 21.2823 9.94879 21.2924C9.94248 21.3053 9.93375 21.3177 9.92297 21.3285C9.91957 21.3319 9.91597 21.3351 9.91218 21.3382C9.91098 21.339 9.90976 21.3397 9.90853 21.3405L9.89046 21.3134L9.88706 21.3083L9.88265 21.3017L9.87472 21.2898C9.87842 21.2873 9.88211 21.285 9.88576 21.283C9.9086 21.2702 9.93 21.2653 9.94585 21.2637C9.9466 21.2637 9.94733 21.2636 9.94804 21.2635C9.95081 21.2633 9.95338 21.2632 9.95575 21.2632C9.95618 21.2632 9.95662 21.2632 9.95705 21.2632ZM9.4715 20.6329C9.48047 20.6309 9.48853 20.63 9.49547 20.6297C9.49731 20.6315 9.49914 20.6333 9.50098 20.6351L9.45322 20.6876L9.4426 20.6993L9.43622 20.7063L9.42756 20.7158L9.4168 20.7277L9.36626 20.7704C9.36562 20.7596 9.36645 20.7424 9.37371 20.7216C9.37906 20.7063 9.38718 20.6913 9.39784 20.6776C9.39925 20.6758 9.40071 20.6741 9.40221 20.6723C9.40425 20.6699 9.40638 20.6676 9.40859 20.6653C9.40978 20.6641 9.41099 20.6628 9.41223 20.6617C9.4165 20.6582 9.42096 20.655 9.42557 20.6521C9.43984 20.643 9.45556 20.6365 9.4715 20.6329ZM9.47828 20.6942L9.52272 20.6566C9.52477 20.6587 9.52682 20.6607 9.52888 20.6628C9.52839 20.6729 9.52646 20.6857 9.52137 20.7003C9.51603 20.7156 9.50791 20.7306 9.49725 20.7442C9.49584 20.746 9.49438 20.7478 9.49288 20.7496C9.49083 20.752 9.48871 20.7543 9.4865 20.7566C9.48531 20.7578 9.4841 20.759 9.48287 20.7602C9.47859 20.7637 9.47413 20.7669 9.46952 20.7698C9.45525 20.7789 9.43953 20.7854 9.4236 20.789C9.40976 20.7921 9.39809 20.7925 9.38935 20.792L9.44187 20.7343L9.45249 20.7226L9.45887 20.7156L9.46753 20.706L9.47828 20.6942ZM9.88317 21.3187L9.90175 21.3443C9.90082 21.3447 9.89989 21.3452 9.89896 21.3457C9.88504 21.3525 9.87011 21.3569 9.85533 21.3586C9.84514 21.3598 9.83619 21.3596 9.82866 21.3587C9.82621 21.3584 9.82391 21.3581 9.82177 21.3577C9.82195 21.357 9.82214 21.3564 9.82234 21.3557C9.82349 21.352 9.825 21.3479 9.82696 21.3436C9.82882 21.3394 9.83101 21.3353 9.83353 21.3311C9.84129 21.3184 9.8522 21.3059 9.86635 21.2956L9.87216 21.3036L9.87438 21.3066L9.87957 21.3138L9.88317 21.3187ZM12.1161 22.517C12.1174 22.5096 12.1193 22.5029 12.1215 22.4968C12.1251 22.5047 12.1278 22.5128 12.1295 22.521C12.131 22.5282 12.1317 22.5354 12.1317 22.5424C12.1317 22.5516 12.1309 22.5601 12.1295 22.5678C12.128 22.576 12.1258 22.5835 12.1233 22.5901C12.1211 22.5849 12.1192 22.5792 12.1177 22.5732C12.1171 22.5709 12.1165 22.5685 12.1161 22.566C12.1147 22.5586 12.1138 22.5507 12.1138 22.5424C12.1138 22.5395 12.1139 22.5367 12.1141 22.5339C12.1144 22.5279 12.1151 22.5223 12.1161 22.517ZM27.7857 0.75H4.21429C2.30166 0.75 0.75 2.30166 0.75 4.21429V27.7857C0.75 29.6983 2.30166 31.25 4.21429 31.25H27.7857C29.6983 31.25 31.25 29.6983 31.25 27.7857V4.21429C31.25 2.30166 29.6983 0.75 27.7857 0.75Z" fill="#141414" stroke="#246036" stroke-width="0.5"/>
</svg>
