<svg width="30" height="30" viewBox="0 0 30 30" fill="none" xmlns="http://www.w3.org/2000/svg">
<path d="M24.375 29.75H5.625C2.6562 29.75 0.25 27.3438 0.25 24.375V5.625C0.25 2.6562 2.6562 0.25 5.625 0.25H24.375C27.3438 0.25 29.75 2.6562 29.75 5.625V24.375C29.75 27.3438 27.3438 29.75 24.375 29.75Z" fill="#141414" stroke="#246036" stroke-width="0.5"/>
<path d="M23.999 18.5H23.9984H13.5016C12.9296 18.5 12.4375 17.998 12.4375 17.3437C12.4375 16.6908 12.9297 16.1875 13.5016 16.1875H23.9984C24.5704 16.1875 25.0625 16.6895 25.0625 17.3437C25.0625 17.9985 24.5701 18.5012 23.999 18.5Z" fill="#ED9212" stroke="#246036" stroke-width="0.5"/>
<path d="M6.39066 21.1056L6.39019 21.1051C5.44082 20.1644 4.93601 18.8138 4.9375 17.348V17.3477C4.9375 15.8839 5.44102 14.5749 6.39201 13.6296L16.7245 3.37123C16.7245 3.37119 16.7246 3.37115 16.7246 3.37111C17.1484 2.95147 17.8618 2.95572 18.3183 3.40908C18.7728 3.86049 18.7776 4.56625 18.3556 4.98427L18.3542 4.98574L15.8298 7.52833L15.5073 7.85313L15.9548 7.94893L15.9886 7.95616C16.8911 8.16351 17.6968 8.61667 18.3339 9.24094C18.3343 9.24125 18.3346 9.24157 18.3349 9.24188L21.0027 11.9166L21.0038 11.9176C21.4238 12.3337 21.4198 13.0393 20.9635 13.4926C20.5065 13.9452 19.793 13.9499 19.3714 13.5309L19.3714 13.5309L19.3682 13.5278L16.6103 10.8832C16.073 10.35 15.3409 10.1403 14.5702 10.1403C13.8047 10.1403 13.0568 10.3305 12.5148 10.8678L12.5134 10.8691L8.09521 15.3165C8.09505 15.3166 8.09488 15.3168 8.09472 15.3169C7.56433 15.8447 7.30377 16.567 7.30377 17.3462C7.30377 18.121 7.56016 18.8849 8.09502 19.4154C8.09518 19.4155 8.09534 19.4157 8.0955 19.4158L12.5264 23.8467L12.5269 23.8472C13.0643 24.3816 13.7971 24.5917 14.5686 24.5917C15.3394 24.5917 16.0715 24.382 16.6088 23.8488L19.3667 21.2026L19.3667 21.2026L19.3701 21.1993C19.79 20.7809 20.5031 20.7851 20.9603 21.2392C21.4165 21.6924 21.421 22.3968 21.0004 22.8146L20.9996 22.8155L18.3306 25.4929C18.3305 25.493 18.3304 25.493 18.3303 25.4931C17.3795 26.4381 16.0585 26.9375 14.5841 26.9375C13.1044 26.9375 11.7852 26.4745 10.8373 25.5352L6.39066 21.1056Z" fill="#FBF7ED" stroke="#246036" stroke-width="0.5"/>
</svg>
