<svg width="30" height="30" viewBox="0 0 30 30" fill="none" xmlns="http://www.w3.org/2000/svg">
<path d="M9.26812 25.3638H9.51812V25.1138V11.5669V11.3169H9.26812H4.76625H4.51625V11.5669V25.1138V25.3638H4.76625H9.26812ZM9.81437 7.37625H9.81443L9.81432 7.37096C9.79901 6.64718 9.53243 5.99724 9.04751 5.52806C8.56211 5.05844 7.87496 4.78625 7.04813 4.78625C6.22189 4.78625 5.52095 5.05845 5.02457 5.52656C4.52773 5.9951 4.25 6.647 4.25 7.37625C4.25 8.82147 5.34478 9.96625 6.98812 9.96625H7.01813C7.85928 9.96625 8.56038 9.6869 9.05281 9.21465C9.54508 8.74255 9.81437 8.09112 9.81437 7.37625ZM16.2206 25.3638H16.4706V25.1138V17.5481C16.4706 17.1445 16.5023 16.784 16.6015 16.5453L16.6026 16.5425C16.9032 15.7938 17.5711 15.0531 18.6806 15.0531C19.4216 15.0531 19.9101 15.3297 20.225 15.7922C20.5508 16.2708 20.7106 16.9783 20.7106 17.8669V25.1138V25.3638H20.9606H25.4625H25.7125V25.1138V17.3438C25.7125 15.2195 25.1456 13.6276 24.166 12.5646C23.1846 11.4997 21.8169 10.9963 20.28 10.9963C19.036 10.9963 18.1213 11.3392 17.4373 11.8125C17.04 12.0873 16.7251 12.4031 16.4706 12.7125V11.5669V11.3169H16.2206H11.7206H11.4593L11.4709 11.5779C11.4987 12.2059 11.4988 15.5836 11.4917 18.8165C11.4882 20.4302 11.4829 22.0043 11.4785 23.1749C11.4763 23.7602 11.4744 24.2446 11.4729 24.5827L11.4712 24.9745L11.4708 25.0774L11.4707 25.1037L11.4706 25.1104L11.4706 25.112L11.4706 25.1125C11.4706 25.1126 11.4706 25.1126 11.7206 25.1138L11.4706 25.1126L11.4695 25.3638H11.7206H16.2206ZM0.25 2.14875C0.25 1.1058 1.11839 0.25 2.20312 0.25H27.7969C28.8816 0.25 29.75 1.1058 29.75 2.14875V27.8512C29.75 28.8942 28.8816 29.75 27.7969 29.75H2.20312C1.11839 29.75 0.25 28.8942 0.25 27.8512V2.14875Z" fill="#141414" stroke="#246036" stroke-width="0.5"/>
</svg>
