<svg width="185" height="185" viewBox="7.5 10 185 185" xmlns="http://www.w3.org/2000/svg" fill="none">

 <g>
  <title>Layer 1</title>
  <path stroke-width="3" stroke="#246036" id="svg_1" fill="#141414" d="m171.84,43.75l-9.305,0c-0.009,0 -0.018,0.0037 -0.025,0.0103c-0.006,0.0066 -0.01,0.0155 -0.01,0.0249l0,118.7148c0,3.315 1.317,6.495 3.661,8.839c2.344,2.344 5.524,3.661 8.839,3.661c3.315,0 6.495,-1.317 8.839,-3.661c2.344,-2.344 3.661,-5.524 3.661,-8.839l0,-103.0898c0,-4.1534 -1.65,-8.1366 -4.587,-11.0734c-2.937,-2.9369 -6.92,-4.5868 -11.073,-4.5868z"/>
  <path stroke-width="3" stroke="#246036" id="svg_2" fill="#141414" d="m150,162.5l0,-134.375c0,-2.0519 -0.404,-4.0837 -1.189,-5.9794c-0.786,-1.8957 -1.937,-3.6182 -3.387,-5.0691c-1.451,-1.451 -3.174,-2.6019 -5.07,-3.3871c-1.895,-0.7852 -3.927,-1.1894 -5.979,-1.1894l-106.25,0c-4.144,0 -8.1183,1.6462 -11.0485,4.5765c-2.9303,2.9302 -4.5765,6.9045 -4.5765,11.0485l0,137.5c0,5.802 2.3047,11.366 6.407,15.468c4.1024,4.102 9.6664,6.407 15.468,6.407l133.926,0c0.059,0.001 0.118,-0.011 0.172,-0.033c0.055,-0.023 0.105,-0.056 0.147,-0.097c0.041,-0.042 0.074,-0.092 0.097,-0.147c0.022,-0.054 0.034,-0.113 0.033,-0.172c0,-0.098 -0.033,-0.194 -0.093,-0.272c-0.06,-0.077 -0.144,-0.133 -0.239,-0.158c-5.287,-1.45 -9.952,-4.595 -13.279,-8.953c-3.327,-4.357 -5.133,-9.686 -5.139,-15.168zm-112.5,-112.5c0,-1.6576 0.6585,-3.2473 1.8306,-4.4194c1.1721,-1.1721 2.7618,-1.8306 4.4194,-1.8306l25,0c1.6576,0 3.2473,0.6585 4.4194,1.8306c1.1721,1.1721 1.8306,2.7618 1.8306,4.4194l0,25c0,1.6576 -0.6585,3.2473 -1.8306,4.4194c-1.1721,1.1721 -2.7618,1.8306 -4.4194,1.8306l-25,0c-1.6576,0 -3.2473,-0.6585 -4.4194,-1.8306c-1.1721,-1.1721 -1.8306,-2.7618 -1.8306,-4.4194l0,-25zm81.25,106.25l-74.8242,0c-3.3633,0 -6.25,-2.586 -6.418,-5.949c-0.0407,-0.845 0.0906,-1.69 0.3859,-2.483c0.2953,-0.792 0.7485,-1.517 1.3322,-2.13c0.5836,-0.612 1.2855,-1.1 2.0632,-1.433c0.7776,-0.333 1.6149,-0.505 2.4609,-0.505l74.824,0c3.363,0 6.25,2.586 6.418,5.949c0.041,0.845 -0.09,1.69 -0.386,2.483c-0.295,0.792 -0.748,1.517 -1.332,2.13c-0.584,0.612 -1.285,1.1 -2.063,1.433c-0.778,0.333 -1.615,0.505 -2.461,0.505zm0,-25l-74.8242,0c-3.3633,0 -6.25,-2.586 -6.418,-5.949c-0.0407,-0.845 0.0906,-1.69 0.3859,-2.483c0.2953,-0.792 0.7485,-1.517 1.3322,-2.13c0.5836,-0.612 1.2855,-1.1 2.0632,-1.433c0.7776,-0.333 1.6149,-0.505 2.4609,-0.505l74.824,0c3.363,0 6.25,2.586 6.418,5.949c0.041,0.845 -0.09,1.69 -0.386,2.483c-0.295,0.792 -0.748,1.517 -1.332,2.13c-0.584,0.612 -1.285,1.1 -2.063,1.433c-0.778,0.333 -1.615,0.505 -2.461,0.505zm0,-25l-74.8242,0c-3.3633,0 -6.25,-2.586 -6.418,-5.949c-0.0407,-0.8453 0.0906,-1.6898 0.3859,-2.4826c0.2953,-0.7929 0.7485,-1.5175 1.3322,-2.13c0.5836,-0.6124 1.2855,-1.1001 2.0632,-1.4333c0.7776,-0.3332 1.6149,-0.505 2.4609,-0.5051l74.824,0c3.363,0 6.25,2.5859 6.418,5.9492c0.041,0.8448 -0.09,1.6898 -0.386,2.4828c-0.295,0.792 -0.748,1.517 -1.332,2.13c-0.584,0.612 -1.285,1.1 -2.063,1.433c-0.778,0.333 -1.615,0.505 -2.461,0.505zm0,-25l-24.8242,0c-3.3633,0 -6.25,-2.5859 -6.418,-5.9492c-0.0407,-0.8451 0.0906,-1.6896 0.3859,-2.4824c0.2953,-0.7929 0.7485,-1.5175 1.3322,-2.13c0.5836,-0.6124 1.2855,-1.1001 2.0632,-1.4333c0.7776,-0.3332 1.6149,-0.505 2.4609,-0.5051l24.824,0c3.363,0 6.25,2.5859 6.418,5.9492c0.041,0.8451 -0.09,1.6896 -0.386,2.4824c-0.295,0.7929 -0.748,1.5175 -1.332,2.13c-0.584,0.6124 -1.285,1.1001 -2.063,1.4333c-0.778,0.3332 -1.615,0.505 -2.461,0.5051zm0,-25l-24.8242,0c-3.3633,0 -6.25,-2.5859 -6.418,-5.9492c-0.0407,-0.8451 0.0906,-1.6896 0.3859,-2.4824c0.2953,-0.7929 0.7485,-1.5175 1.3322,-2.13c0.5836,-0.6125 1.2855,-1.1001 2.0632,-1.4333c0.7776,-0.3332 1.6149,-0.505 2.4609,-0.5051l24.824,0c3.363,0 6.25,2.5859 6.418,5.9492c0.041,0.8451 -0.09,1.6896 -0.386,2.4824c-0.295,0.7929 -0.748,1.5175 -1.332,2.13c-0.584,0.6124 -1.285,1.1001 -2.063,1.4333c-0.778,0.3332 -1.615,0.505 -2.461,0.5051z"/>
  <rect id="svg_3" height="144.31818" width="103.69318" y="22.27273" x="29.54545" fill="#141414"/>
  <ellipse stroke-width="3" stroke="#246036" ry="26.5625" rx="26.5625" id="svg_4" cy="67.86932" cx="79.82955" fill="#fbf7ed"/>
  <ellipse stroke-width="3" stroke="#246036" ry="38.92045" rx="38.92045" id="svg_5" cy="139.60227" cx="80.53978" fill="#fbf7ed"/>
  <rect stroke="null" id="svg_6" height="40.625" width="101.98863" y="139.60227" x="32.67045" fill="#141414"/>
 </g>
</svg>